<svg xmlns="http://www.w3.org/2000/svg" xmlns:xlink="http://www.w3.org/1999/xlink" preserveAspectRatio="xMidYMid" width="16.188" height="16.688" viewBox="0 0 16.188 16.688">
  <defs>
    <style>
      .cls-1 {
        fill: #e1e4e6;
        fill-rule: evenodd;
      }
    </style>
  </defs>
  <path d="M16.182,15.268 L14.768,16.682 L10.899,12.813 C9.784,13.562 8.444,14.000 7.000,14.000 C3.134,14.000 -0.000,10.866 -0.000,7.000 C-0.000,3.134 3.134,-0.000 7.000,-0.000 C10.866,-0.000 14.000,3.134 14.000,7.000 C14.000,8.699 13.370,10.236 12.363,11.449 L16.182,15.268 ZM7.000,2.000 C4.239,2.000 2.000,4.239 2.000,7.000 C2.000,9.761 4.239,12.000 7.000,12.000 C9.761,12.000 12.000,9.761 12.000,7.000 C12.000,4.239 9.761,2.000 7.000,2.000 Z" class="cls-1"/>
</svg>
